<svg width="57" height="9" viewBox="0 0 57 9" fill="none" xmlns="http://www.w3.org/2000/svg">
<path d="M4.5 7.62939e-06L6.02963 2.60797L9 3.24672L6.975 5.49728L7.28115 8.50001L4.5 7.28297L1.71885 8.50001L2.025 5.49728L0 3.24672L2.97037 2.60797L4.5 7.62939e-06Z" fill="#FFCB45"/>
<path d="M16.5 7.62939e-06L18.0296 2.60797L21 3.24672L18.975 5.49728L19.2812 8.50001L16.5 7.28297L13.7188 8.50001L14.025 5.49728L12 3.24672L14.9704 2.60797L16.5 7.62939e-06Z" fill="#FFCB45"/>
<path d="M28.5 7.62939e-06L30.0296 2.60797L33 3.24672L30.975 5.49728L31.2812 8.50001L28.5 7.28297L25.7188 8.50001L26.025 5.49728L24 3.24672L26.9704 2.60797L28.5 7.62939e-06Z" fill="#F2F2F2"/>
<path d="M40.5 7.62939e-06L42.0296 2.60797L45 3.24672L42.975 5.49728L43.2812 8.50001L40.5 7.28297L37.7188 8.50001L38.025 5.49728L36 3.24672L38.9704 2.60797L40.5 7.62939e-06Z" fill="#F2F2F2"/>
<path d="M52.5 7.62939e-06L54.0296 2.60797L57 3.24672L54.975 5.49728L55.2812 8.50001L52.5 7.28297L49.7188 8.50001L50.025 5.49728L48 3.24672L50.9704 2.60797L52.5 7.62939e-06Z" fill="#F2F2F2"/>
</svg>
