<svg width="57" height="9" viewBox="0 0 57 9" fill="none" xmlns="http://www.w3.org/2000/svg">
<path d="M4.5 0.500008L6.02963 3.10797L9 3.74672L6.975 5.99728L7.28115 9.00001L4.5 7.78297L1.71885 9.00001L2.025 5.99728L0 3.74672L2.97037 3.10797L4.5 0.500008Z" fill="#FFCB45"/>
<path d="M16.5 0.500008L18.0296 3.10797L21 3.74672L18.975 5.99728L19.2812 9.00001L16.5 7.78297L13.7188 9.00001L14.025 5.99728L12 3.74672L14.9704 3.10797L16.5 0.500008Z" fill="#F2F2F2"/>
<path d="M13.7188 9.00001L16.5 7.78297V0.500008L14.9704 3.10797L12 3.74672L14.025 5.99728L13.7188 9.00001Z" fill="#FFCB45"/>
<path d="M28.5 0.500008L30.0296 3.10797L33 3.74672L30.975 5.99728L31.2812 9.00001L28.5 7.78297L25.7188 9.00001L26.025 5.99728L24 3.74672L26.9704 3.10797L28.5 0.500008Z" fill="#F2F2F2"/>
<path d="M40.5 0.500008L42.0296 3.10797L45 3.74672L42.975 5.99728L43.2812 9.00001L40.5 7.78297L37.7188 9.00001L38.025 5.99728L36 3.74672L38.9704 3.10797L40.5 0.500008Z" fill="#F2F2F2"/>
<path d="M52.5 0.500008L54.0296 3.10797L57 3.74672L54.975 5.99728L55.2812 9.00001L52.5 7.78297L49.7188 9.00001L50.025 5.99728L48 3.74672L50.9704 3.10797L52.5 0.500008Z" fill="#F2F2F2"/>
</svg>
