<svg width="57" height="9" viewBox="0 0 57 9" fill="none" xmlns="http://www.w3.org/2000/svg">
<path d="M4.5 0.500015L6.02963 3.10798L9 3.74673L6.975 5.99729L7.28115 9.00002L4.5 7.78298L1.71885 9.00002L2.025 5.99729L0 3.74673L2.97037 3.10798L4.5 0.500015Z" fill="#F2F2F2"/>
<path d="M1.71885 9.00002L4.5 7.78298V0.500015L2.97037 3.10798L0 3.74673L2.025 5.99729L1.71885 9.00002Z" fill="#FFCB45"/>
<path d="M16.5 0.500015L18.0296 3.10798L21 3.74673L18.975 5.99729L19.2812 9.00002L16.5 7.78298L13.7188 9.00002L14.025 5.99729L12 3.74673L14.9704 3.10798L16.5 0.500015Z" fill="#F2F2F2"/>
<path d="M28.5 0.500015L30.0296 3.10798L33 3.74673L30.975 5.99729L31.2812 9.00002L28.5 7.78298L25.7188 9.00002L26.025 5.99729L24 3.74673L26.9704 3.10798L28.5 0.500015Z" fill="#F2F2F2"/>
<path d="M40.5 0.500015L42.0296 3.10798L45 3.74673L42.975 5.99729L43.2812 9.00002L40.5 7.78298L37.7188 9.00002L38.025 5.99729L36 3.74673L38.9704 3.10798L40.5 0.500015Z" fill="#F2F2F2"/>
<path d="M52.5 0.500015L54.0296 3.10798L57 3.74673L54.975 5.99729L55.2812 9.00002L52.5 7.78298L49.7188 9.00002L50.025 5.99729L48 3.74673L50.9704 3.10798L52.5 0.500015Z" fill="#F2F2F2"/>
</svg>
